# xmcd
#
# Track frame offsets:
#	150
#	16375
#	30715
#	44900
#	60917
#	77150
#	89130
#	107187
#	121832
#	136615
#	151200
#	171222
#	188015
#	198040
#	216897
#
# Disc length: 3067 seconds
#
# Revision: 2
# Processed by: cddbd v1.5.1PL2 Copyright (c) Steve Scherf et al.
# Submitted via: audiograbber 1.83.01
#
DISCID=c50bf90f
DTITLE=Various Artist - 70's and 80's Country - Vol 20
DYEAR=1900
DGENRE=karaoke
TTITLE0=What Do You Want From Me This Time - Foster and Lloyd
TTITLE1=Would You Catch A Falling Star
TTITLE2=Love Or Something Like It - Kenny Rogers
TTITLE3=Morning - Jim Ed Brown
TTITLE4=One Step Forward - The Desert Rose Band
TTITLE5=Be There For Me Baby - Johnny Lee
TTITLE6=Don't Make It Easy For Me - Earl Thomas Conley
TTITLE7=Let's Get Started If We're Gonna Break My Heart - The Statler Brothers
TTITLE8=At The sound Of The Tone - John Schneider
TTITLE9=It's You Again - Skip Ewing
TTITLE10=Snapshot - Sylvia
TTITLE11=Darlene - T. Graham Brown
TTITLE12=Still Loving You - Bob Luman
TTITLE13=(I Love You) What Can I Say - Jerry Reed
TTITLE14=Got No Reason Now For Goin' Home - Gene Watson
EXTD=
EXTT0=
EXTT1=
EXTT2=
EXTT3=
EXTT4=
EXTT5=
EXTT6=
EXTT7=
EXTT8=
EXTT9=
EXTT10=
EXTT11=
EXTT12=
EXTT13=
EXTT14=
PLAYORDER=
